<?xml version="1.0" encoding="utf-8"?>
<!-- Generator: Adobe Illustrator 18.1.0, SVG Export Plug-In . SVG Version: 6.00 Build 0)  -->
<!DOCTYPE svg PUBLIC "-//W3C//DTD SVG 1.1//EN" "http://www.w3.org/Graphics/SVG/1.1/DTD/svg11.dtd">
<svg version="1.1" id="Layer_1" xmlns="http://www.w3.org/2000/svg" xmlns:xlink="http://www.w3.org/1999/xlink" x="0px" y="0px"
	 viewBox="0 0 250 81" enable-background="new 0 0 250 81" xml:space="preserve">
<g id="g2999" transform="translate(0,-2e-5)">
	<path id="path8" fill="#222222" d="M18,79.6c-5.3,0-9.4-1.5-12.2-4.4C3,72.3,1.6,68.1,1.6,62.7
		c0-2.7,0.4-5.1,1.3-7.2c0.8-2.1,2-3.9,3.5-5.4c1.5-1.5,3.2-2.6,5.3-3.3c2-0.8,4.3-1.1,6.7-1.1c1.4,0,2.6,0.1,3.8,0.3
		c1.1,0.2,2.1,0.4,3,0.7c0.9,0.3,1.6,0.5,2.1,0.8c0.6,0.3,1,0.5,1.2,0.7l-2.1,5.9c-1-0.5-2.2-1-3.5-1.4c-1.3-0.4-2.9-0.6-4.6-0.6
		c-1.1,0-2.2,0.2-3.3,0.6c-1.1,0.4-2,1-2.9,1.8c-0.8,0.8-1.5,1.9-2,3.2c-0.5,1.3-0.8,2.9-0.8,4.8c0,1.5,0.2,2.9,0.5,4.2
		c0.3,1.3,0.9,2.4,1.6,3.4s1.7,1.7,2.9,2.2c1.2,0.5,2.6,0.8,4.3,0.8c1.1,0,2-0.1,2.9-0.2c0.9-0.1,1.6-0.3,2.3-0.4
		c0.7-0.2,1.2-0.4,1.7-0.6c0.5-0.2,1-0.4,1.4-0.6l2,5.9c-1,0.6-2.5,1.2-4.4,1.7C22.6,79.4,20.5,79.6,18,79.6L18,79.6z"/>
	<path id="path10" fill="#222222" d="M38.6,62.7c0,1.6,0.2,3,0.6,4.3c0.4,1.3,1,2.4,1.7,3.3
		c0.7,0.9,1.6,1.6,2.7,2.1c1.1,0.5,2.3,0.8,3.7,0.8c1.4,0,2.6-0.3,3.7-0.8c1.1-0.5,2-1.2,2.7-2.1c0.7-0.9,1.3-2,1.7-3.3
		c0.4-1.3,0.6-2.7,0.6-4.3s-0.2-3-0.6-4.3c-0.4-1.3-1-2.4-1.7-3.3C53,54,52.1,53.3,51,52.8c-1.1-0.5-2.3-0.8-3.7-0.8
		c-1.4,0-2.6,0.3-3.7,0.8c-1.1,0.5-2,1.2-2.7,2.2c-0.7,0.9-1.3,2-1.7,3.3C38.8,59.7,38.6,61.1,38.6,62.7z M63.6,62.7
		c0,2.8-0.4,5.2-1.3,7.4c-0.8,2.1-2,3.9-3.4,5.3c-1.4,1.4-3.2,2.5-5.2,3.2c-2,0.7-4.1,1.1-6.4,1.1c-2.2,0-4.3-0.4-6.3-1.1
		c-2-0.7-3.7-1.8-5.2-3.2c-1.5-1.4-2.6-3.2-3.5-5.3c-0.8-2.1-1.3-4.6-1.3-7.4c0-2.8,0.4-5.2,1.3-7.4c0.9-2.1,2.1-3.9,3.6-5.3
		c1.5-1.4,3.2-2.5,5.2-3.2c2-0.7,4-1.1,6.2-1.1c2.2,0,4.3,0.4,6.3,1.1c2,0.7,3.7,1.8,5.2,3.2c1.5,1.4,2.6,3.2,3.5,5.3
		C63.2,57.4,63.6,59.9,63.6,62.7z"/>
	<path id="path12" fill="#222222" d="M78.4,46.4c0.6,1,1.2,2.3,2,3.8c0.7,1.5,1.5,3.2,2.3,4.9
		c0.8,1.8,1.6,3.6,2.4,5.4c0.8,1.8,1.5,3.6,2.2,5.2c0.7-1.6,1.4-3.4,2.2-5.2c0.8-1.8,1.6-3.7,2.4-5.4c0.8-1.8,1.6-3.4,2.3-4.9
		c0.7-1.5,1.4-2.8,2-3.8h6.7c0.3,2.2,0.6,4.6,0.9,7.3c0.3,2.7,0.5,5.5,0.7,8.4c0.2,2.9,0.4,5.8,0.6,8.7c0.2,2.9,0.3,5.7,0.4,8.2
		h-7.2c-0.1-3.2-0.2-6.6-0.4-10.3c-0.2-3.7-0.4-7.5-0.7-11.3c-0.6,1.3-1.2,2.8-1.9,4.4c-0.7,1.6-1.4,3.2-2.1,4.8
		c-0.7,1.6-1.3,3.1-2,4.6c-0.6,1.5-1.2,2.7-1.6,3.7h-5.1c-0.4-1-1-2.3-1.6-3.7c-0.6-1.5-1.3-3-2-4.6c-0.7-1.6-1.4-3.2-2.1-4.8
		c-0.7-1.6-1.3-3.1-1.9-4.4c-0.3,3.8-0.6,7.6-0.7,11.3c-0.2,3.7-0.3,7.2-0.4,10.3h-7.2c0.1-2.6,0.3-5.3,0.4-8.2
		c0.2-2.9,0.4-5.8,0.6-8.7c0.2-2.9,0.4-5.7,0.7-8.4c0.3-2.7,0.6-5.1,0.9-7.3H78.4z"/>
	<path id="path14" fill="#222222" d="M120.8,46.4c0.6,1,1.2,2.3,2,3.8c0.7,1.5,1.5,3.2,2.3,4.9
		c0.8,1.8,1.6,3.6,2.4,5.4c0.8,1.8,1.5,3.6,2.2,5.2c0.7-1.6,1.4-3.4,2.2-5.2c0.8-1.8,1.6-3.7,2.4-5.4c0.8-1.8,1.6-3.4,2.3-4.9
		c0.7-1.5,1.4-2.8,2-3.8h6.7c0.3,2.2,0.6,4.6,0.9,7.3c0.3,2.7,0.5,5.5,0.7,8.4c0.2,2.9,0.4,5.8,0.6,8.7c0.2,2.9,0.3,5.7,0.4,8.2
		h-7.2c-0.1-3.2-0.2-6.6-0.4-10.3c-0.2-3.7-0.4-7.5-0.7-11.3c-0.6,1.3-1.2,2.8-1.9,4.4c-0.7,1.6-1.4,3.2-2.1,4.8
		c-0.7,1.6-1.3,3.1-2,4.6c-0.6,1.5-1.2,2.7-1.6,3.7h-5.1c-0.4-1-1-2.3-1.6-3.7c-0.6-1.5-1.3-3-2-4.6c-0.7-1.6-1.4-3.2-2.1-4.8
		c-0.7-1.6-1.3-3.1-1.9-4.4c-0.3,3.8-0.6,7.6-0.7,11.3c-0.2,3.7-0.3,7.2-0.4,10.3h-7.2c0.1-2.6,0.3-5.3,0.4-8.2
		c0.2-2.9,0.4-5.8,0.6-8.7c0.2-2.9,0.4-5.7,0.7-8.4c0.3-2.7,0.6-5.1,0.9-7.3H120.8z"/>
	<path id="path16" fill="#222222" d="M160.6,62.7c0,1.6,0.2,3,0.6,4.3c0.4,1.3,1,2.4,1.7,3.3
		c0.7,0.9,1.6,1.6,2.7,2.1c1.1,0.5,2.3,0.8,3.7,0.8c1.4,0,2.6-0.3,3.7-0.8c1.1-0.5,2-1.2,2.7-2.1c0.7-0.9,1.3-2,1.7-3.3
		c0.4-1.3,0.6-2.7,0.6-4.3s-0.2-3-0.6-4.3c-0.4-1.3-1-2.4-1.7-3.3c-0.7-0.9-1.7-1.6-2.7-2.1c-1.1-0.5-2.3-0.8-3.7-0.8
		c-1.4,0-2.6,0.3-3.7,0.8c-1.1,0.5-2,1.2-2.7,2.2c-0.7,0.9-1.3,2-1.7,3.3C160.8,59.7,160.6,61.1,160.6,62.7z M185.6,62.7
		c0,2.8-0.4,5.2-1.3,7.4s-2,3.9-3.4,5.3c-1.4,1.4-3.2,2.5-5.2,3.2c-2,0.7-4.1,1.1-6.4,1.1c-2.2,0-4.3-0.4-6.3-1.1
		c-2-0.7-3.7-1.8-5.2-3.2c-1.5-1.4-2.6-3.2-3.5-5.3s-1.3-4.6-1.3-7.4c0-2.8,0.4-5.2,1.3-7.4c0.9-2.1,2.1-3.9,3.6-5.3
		c1.5-1.4,3.2-2.5,5.2-3.2c2-0.7,4-1.1,6.2-1.1c2.2,0,4.3,0.4,6.3,1.1c2,0.7,3.7,1.8,5.2,3.2c1.5,1.4,2.6,3.2,3.5,5.3
		C185.2,57.4,185.6,59.9,185.6,62.7L185.6,62.7z"/>
	<path id="path18" fill="#222222" d="M213.7,79c-2.1-3.7-4.4-7.4-6.8-11
		c-2.5-3.6-5.1-7.1-7.8-10.3V79h-7.3V46.4h6c1,1,2.2,2.3,3.4,3.8c1.3,1.5,2.5,3.1,3.8,4.8c1.3,1.7,2.6,3.5,3.9,5.3
		c1.3,1.8,2.5,3.6,3.6,5.3V46.4h7.3V79L213.7,79z"/>
	<path id="path20" fill="#222222" d="M236.3,73.4c1,0,1.9-0.1,2.6-0.3c0.7-0.2,1.2-0.4,1.6-0.7
		c0.4-0.3,0.7-0.7,0.9-1.1c0.2-0.4,0.2-0.9,0.2-1.4c0-1.1-0.5-2-1.5-2.7c-1-0.7-2.7-1.5-5.2-2.3c-1.1-0.4-2.1-0.8-3.2-1.3
		c-1.1-0.5-2-1.1-2.9-1.8c-0.8-0.7-1.5-1.6-2.1-2.7c-0.5-1.1-0.8-2.3-0.8-3.8c0-1.5,0.3-2.9,0.8-4.1c0.6-1.2,1.4-2.2,2.4-3.1
		c1-0.8,2.3-1.5,3.8-2c1.5-0.5,3.1-0.7,5-0.7c2.2,0,4.1,0.2,5.7,0.7c1.6,0.5,2.9,1,4,1.6l-2.1,5.8c-0.9-0.5-1.9-0.9-3-1.2
		c-1.1-0.4-2.5-0.5-4-0.5c-1.8,0-3,0.2-3.8,0.7c-0.8,0.5-1.2,1.2-1.2,2.2c0,0.6,0.1,1.1,0.4,1.5c0.3,0.4,0.7,0.8,1.2,1.1
		c0.5,0.3,1.1,0.6,1.8,0.9c0.7,0.3,1.4,0.5,2.2,0.8c1.7,0.6,3.2,1.2,4.4,1.9c1.3,0.6,2.3,1.3,3.1,2.1c0.8,0.8,1.5,1.8,1.9,2.9
		c0.4,1.1,0.6,2.4,0.6,4c0,3-1.1,5.4-3.2,7.1s-5.4,2.5-9.7,2.5c-1.4,0-2.8-0.1-3.9-0.3c-1.2-0.2-2.2-0.4-3.1-0.6
		c-0.9-0.3-1.7-0.5-2.3-0.8c-0.6-0.3-1.2-0.5-1.6-0.8l2.1-5.8c1,0.5,2.2,1,3.6,1.4C232.5,73.2,234.3,73.4,236.3,73.4L236.3,73.4z"/>
	<path id="path22" fill="#222222" d="M16.8,37.9c-2.3,0-4.3-0.4-6.2-1.1c-1.9-0.7-3.5-1.8-4.8-3.2
		c-1.3-1.4-2.4-3.1-3.1-5.2c-0.7-2-1.1-4.4-1.1-7s0.4-5,1.2-7c0.8-2,1.9-3.8,3.3-5.2c1.4-1.4,3-2.5,4.9-3.2C12.9,5.4,14.9,5,17,5
		c1.3,0,2.5,0.1,3.6,0.3c1.1,0.2,2,0.4,2.8,0.6c0.8,0.2,1.4,0.5,1.9,0.7c0.5,0.2,0.8,0.4,1,0.5L25,10.8c-0.3-0.2-0.7-0.4-1.2-0.6
		C23.3,10,22.7,9.8,22,9.6c-0.7-0.2-1.4-0.4-2.2-0.5c-0.8-0.1-1.6-0.2-2.4-0.2c-1.7,0-3.2,0.3-4.6,0.9c-1.4,0.6-2.5,1.4-3.5,2.5
		c-1,1.1-1.7,2.4-2.2,4c-0.5,1.6-0.8,3.3-0.8,5.3c0,1.9,0.2,3.6,0.7,5.1c0.4,1.5,1.1,2.9,2,4c0.9,1.1,2,2,3.4,2.6
		c1.3,0.6,2.9,0.9,4.7,0.9c2.1,0,3.8-0.2,5.2-0.6c1.4-0.4,2.4-0.8,3.1-1.1l1.2,3.6c-0.2,0.2-0.6,0.3-1.2,0.6
		c-0.6,0.2-1.3,0.4-2.1,0.7c-0.8,0.2-1.8,0.4-2.9,0.5C19.3,37.8,18.1,37.9,16.8,37.9z"/>
	<path id="path24" fill="#222222" d="M31.4,37.2V2.7L35.8,2V14c0.8-0.3,1.7-0.5,2.6-0.7
		c0.9-0.2,1.8-0.3,2.7-0.3c1.9,0,3.5,0.3,4.8,0.8c1.3,0.5,2.3,1.3,3,2.2c0.8,1,1.3,2.1,1.6,3.4c0.3,1.3,0.5,2.8,0.5,4.4v13.3h-4.3
		V24.9c0-1.5-0.1-2.7-0.3-3.7c-0.2-1-0.5-1.9-1-2.5c-0.5-0.6-1.1-1.1-1.9-1.4c-0.8-0.3-1.7-0.4-2.9-0.4c-0.5,0-0.9,0-1.4,0.1
		c-0.5,0.1-1,0.1-1.4,0.2c-0.4,0.1-0.9,0.2-1.2,0.3c-0.4,0.1-0.6,0.2-0.8,0.2v19.6L31.4,37.2z"/>
	<path id="path26" fill="#222222" d="M56.6,25.5c0-2.1,0.3-3.9,0.9-5.5c0.6-1.6,1.4-2.9,2.5-3.9
		c1-1,2.2-1.8,3.5-2.3c1.3-0.5,2.7-0.8,4.1-0.8c3.3,0,5.7,1,7.5,3c1.7,2,2.6,5,2.6,9.1c0,0.2,0,0.4,0,0.7s0,0.6,0,0.8H61.1
		c0.2,2.5,0.9,4.3,2.2,5.6c1.3,1.3,3.3,1.9,5.9,1.9c1.5,0,2.8-0.1,3.8-0.4c1-0.3,1.8-0.5,2.3-0.8l0.6,3.5c-0.5,0.3-1.4,0.6-2.8,0.9
		c-1.3,0.3-2.8,0.5-4.5,0.5c-2.1,0-3.9-0.3-5.5-0.9c-1.5-0.6-2.8-1.5-3.8-2.6c-1-1.1-1.7-2.4-2.2-3.9C56.9,28.9,56.6,27.2,56.6,25.5
		L56.6,25.5z M73.2,23.1c0-1.9-0.5-3.5-1.5-4.7c-1-1.2-2.4-1.8-4.2-1.8c-1,0-1.9,0.2-2.6,0.6c-0.8,0.4-1.4,0.9-1.9,1.5
		c-0.5,0.6-0.9,1.3-1.2,2.1c-0.3,0.8-0.5,1.6-0.6,2.4H73.2z"/>
	<path id="path28" fill="#222222" d="M89.5,34.2c1.8,0,3.1-0.2,3.9-0.7c0.9-0.5,1.3-1.2,1.3-2.2
		c0-1-0.4-1.8-1.3-2.5c-0.8-0.6-2.2-1.3-4.1-2c-0.9-0.4-1.8-0.7-2.7-1.1c-0.9-0.4-1.6-0.8-2.2-1.3c-0.6-0.5-1.1-1.1-1.5-1.9
		c-0.4-0.7-0.6-1.6-0.6-2.7c0-2.1,0.8-3.8,2.4-5c1.6-1.2,3.7-1.8,6.5-1.8c0.7,0,1.4,0,2,0.1c0.7,0.1,1.3,0.2,1.9,0.3
		c0.6,0.1,1.1,0.2,1.6,0.3c0.4,0.1,0.8,0.2,1,0.3L97,17.7c-0.5-0.2-1.2-0.5-2.2-0.8c-1-0.3-2.2-0.4-3.6-0.4c-1.2,0-2.3,0.2-3.2,0.7
		c-0.9,0.5-1.3,1.2-1.3,2.2c0,0.5,0.1,1,0.3,1.4c0.2,0.4,0.5,0.8,0.9,1.1c0.4,0.3,0.9,0.6,1.6,0.9c0.6,0.3,1.4,0.6,2.2,0.9
		c1.1,0.4,2.2,0.8,3.1,1.3c0.9,0.4,1.7,0.9,2.3,1.4c0.6,0.5,1.1,1.2,1.5,2c0.3,0.8,0.5,1.7,0.5,2.8c0,2.2-0.8,3.8-2.5,5
		c-1.7,1.1-4,1.7-7.1,1.7c-2.1,0-3.8-0.2-5-0.5c-1.2-0.3-2-0.6-2.5-0.8l0.8-3.6c0.5,0.2,1.3,0.5,2.4,0.8
		C86.3,34,87.8,34.2,89.5,34.2L89.5,34.2z"/>
	<path id="path30" fill="#222222" d="M112.8,34.2c1,0,1.9,0,2.7-0.1c0.8,0,1.4-0.1,2-0.3v-7
		c-0.3-0.2-0.8-0.3-1.5-0.4c-0.7-0.1-1.5-0.2-2.5-0.2c-0.6,0-1.3,0-2.1,0.1c-0.7,0.1-1.4,0.3-2,0.6c-0.6,0.3-1.1,0.7-1.5,1.2
		c-0.4,0.5-0.6,1.2-0.6,2c0,1.5,0.5,2.6,1.5,3.2C109.8,33.9,111.1,34.2,112.8,34.2L112.8,34.2z M112.4,13c1.7,0,3.2,0.2,4.4,0.7
		c1.2,0.4,2.2,1.1,2.9,1.9c0.7,0.8,1.2,1.8,1.6,2.9c0.3,1.1,0.5,2.3,0.5,3.7v14.8c-0.4,0.1-0.9,0.1-1.6,0.3
		c-0.7,0.1-1.4,0.2-2.3,0.3s-1.7,0.2-2.7,0.3c-1,0.1-1.9,0.1-2.9,0.1c-1.4,0-2.6-0.1-3.8-0.4c-1.1-0.3-2.1-0.7-3-1.3s-1.5-1.4-2-2.3
		c-0.5-1-0.7-2.1-0.7-3.5c0-1.3,0.3-2.4,0.8-3.4c0.5-0.9,1.3-1.7,2.2-2.3s2-1,3.3-1.3c1.2-0.3,2.5-0.4,3.9-0.4c0.4,0,0.9,0,1.3,0.1
		c0.5,0,0.9,0.1,1.3,0.2c0.4,0.1,0.8,0.1,1.1,0.2c0.3,0.1,0.5,0.1,0.7,0.1v-1.2c0-0.7-0.1-1.4-0.2-2.1c-0.2-0.7-0.4-1.3-0.8-1.8
		c-0.4-0.5-1-1-1.6-1.3c-0.7-0.3-1.6-0.5-2.7-0.5c-1.4,0-2.7,0.1-3.7,0.3c-1.1,0.2-1.9,0.4-2.4,0.6l-0.5-3.5
		c0.6-0.2,1.5-0.5,2.8-0.7C109.5,13.1,110.9,13,112.4,13L112.4,13z"/>
	<path id="path32" fill="#222222" d="M145.7,25.5c0-2.8-0.7-4.9-2.1-6.4c-1.4-1.5-3.3-2.2-5.6-2.2
		c-1.3,0-2.3,0-3,0.1c-0.7,0.1-1.3,0.2-1.7,0.3v14.9c0.5,0.4,1.3,0.8,2.3,1.2c1,0.4,2.1,0.6,3.3,0.6c1.2,0,2.3-0.2,3.2-0.7
		c0.9-0.4,1.6-1,2.2-1.8c0.6-0.8,1-1.7,1.2-2.7C145.5,27.8,145.7,26.7,145.7,25.5L145.7,25.5z M150.2,25.5c0,1.8-0.2,3.4-0.7,5
		c-0.5,1.5-1.2,2.8-2.1,3.9c-0.9,1.1-2.1,1.9-3.4,2.5c-1.3,0.6-2.9,0.9-4.6,0.9c-1.4,0-2.6-0.2-3.7-0.5c-1.1-0.4-1.9-0.7-2.4-1v9.5
		h-4.3V14.3c1-0.2,2.3-0.5,3.8-0.8s3.3-0.4,5.3-0.4c1.9,0,3.5,0.3,5,0.9c1.5,0.6,2.8,1.4,3.8,2.5c1.1,1.1,1.9,2.4,2.4,3.9
		C149.9,21.8,150.2,23.5,150.2,25.5L150.2,25.5z"/>
	<path id="path34" fill="#222222" d="M154.9,25.5c0-2.1,0.3-3.9,0.9-5.5c0.6-1.6,1.4-2.9,2.5-3.9
		c1-1,2.2-1.8,3.5-2.3c1.3-0.5,2.7-0.8,4.1-0.8c3.3,0,5.7,1,7.5,3c1.7,2,2.6,5,2.6,9.1c0,0.2,0,0.4,0,0.7s0,0.6,0,0.8h-16.5
		c0.2,2.5,0.9,4.3,2.2,5.6c1.3,1.3,3.3,1.9,5.9,1.9c1.5,0,2.8-0.1,3.8-0.4c1-0.3,1.8-0.5,2.3-0.8l0.6,3.5c-0.5,0.3-1.4,0.6-2.8,0.9
		c-1.3,0.3-2.8,0.5-4.5,0.5c-2.1,0-3.9-0.3-5.5-0.9s-2.8-1.5-3.8-2.6c-1-1.1-1.7-2.4-2.2-3.9C155.1,28.9,154.9,27.2,154.9,25.5
		L154.9,25.5z M171.5,23.1c0-1.9-0.5-3.5-1.5-4.7c-1-1.2-2.4-1.8-4.2-1.8c-1,0-1.9,0.2-2.6,0.6c-0.8,0.4-1.4,0.9-1.9,1.5
		c-0.5,0.6-0.9,1.3-1.2,2.1c-0.3,0.8-0.5,1.6-0.6,2.4H171.5z"/>
	<path id="path36" fill="#222222" d="M190.4,34.2c1,0,1.9,0,2.7-0.1c0.8,0,1.4-0.1,2-0.3v-7
		c-0.3-0.2-0.8-0.3-1.5-0.4c-0.7-0.1-1.5-0.2-2.5-0.2c-0.7,0-1.3,0-2.1,0.1c-0.7,0.1-1.4,0.3-2,0.6c-0.6,0.3-1.1,0.7-1.5,1.2
		c-0.4,0.5-0.6,1.2-0.6,2c0,1.5,0.5,2.6,1.5,3.2C187.3,33.9,188.7,34.2,190.4,34.2L190.4,34.2z M190,13c1.7,0,3.2,0.2,4.4,0.7
		c1.2,0.4,2.2,1.1,2.9,1.9c0.7,0.8,1.2,1.8,1.6,2.9c0.3,1.1,0.5,2.3,0.5,3.7v14.8c-0.4,0.1-0.9,0.1-1.6,0.3
		c-0.7,0.1-1.4,0.2-2.3,0.3c-0.8,0.1-1.7,0.2-2.7,0.3c-1,0.1-1.9,0.1-2.9,0.1c-1.4,0-2.6-0.1-3.8-0.4c-1.1-0.3-2.1-0.7-3-1.3
		c-0.8-0.6-1.5-1.4-2-2.3c-0.5-1-0.7-2.1-0.7-3.5c0-1.3,0.3-2.4,0.8-3.4c0.5-0.9,1.3-1.7,2.2-2.3c0.9-0.6,2-1,3.3-1.3
		c1.2-0.3,2.5-0.4,3.9-0.4c0.4,0,0.9,0,1.3,0.1c0.5,0,0.9,0.1,1.3,0.2c0.4,0.1,0.8,0.1,1.1,0.2c0.3,0.1,0.5,0.1,0.7,0.1v-1.2
		c0-0.7-0.1-1.4-0.2-2.1c-0.2-0.7-0.4-1.3-0.8-1.8c-0.4-0.5-1-1-1.6-1.3c-0.7-0.3-1.6-0.5-2.7-0.5c-1.4,0-2.7,0.1-3.7,0.3
		c-1.1,0.2-1.9,0.4-2.4,0.6L183,14c0.6-0.2,1.5-0.5,2.8-0.7C187.1,13.1,188.5,13,190,13L190,13z"/>
	<path id="path38" fill="#222222" d="M215.2,24.2c0.9,0.7,1.9,1.6,2.9,2.6c1,1,2.1,2.1,3.1,3.3
		c1,1.2,2,2.4,2.9,3.6c0.9,1.2,1.7,2.4,2.3,3.4h-5.1c-0.6-1.1-1.4-2.1-2.3-3.3c-0.9-1.1-1.7-2.2-2.7-3.2c-0.9-1-1.9-1.9-2.8-2.8
		c-1-0.8-1.9-1.6-2.7-2.1v11.4h-4.3V2.7l4.3-0.7v21.6c0.7-0.7,1.6-1.5,2.5-2.4c0.9-0.9,1.8-1.8,2.6-2.7c0.9-0.9,1.7-1.8,2.5-2.6
		c0.8-0.8,1.4-1.6,2-2.2h5.1c-0.7,0.8-1.5,1.6-2.3,2.5c-0.8,0.9-1.7,1.8-2.6,2.8c-0.9,0.9-1.8,1.8-2.7,2.8
		C216.8,22.5,216,23.4,215.2,24.2L215.2,24.2z"/>
	<path id="path40" fill="#222222" d="M228.1,25.5c0-2.1,0.3-3.9,0.9-5.5c0.6-1.6,1.4-2.9,2.5-3.9
		c1-1,2.2-1.8,3.5-2.3c1.3-0.5,2.7-0.8,4.1-0.8c3.3,0,5.7,1,7.5,3c1.7,2,2.6,5,2.6,9.1c0,0.2,0,0.4,0,0.7s0,0.6,0,0.8h-16.5
		c0.2,2.5,0.9,4.3,2.2,5.6c1.3,1.3,3.3,1.9,5.9,1.9c1.5,0,2.8-0.1,3.8-0.4c1-0.3,1.8-0.5,2.3-0.8l0.6,3.5c-0.5,0.3-1.4,0.6-2.8,0.9
		c-1.3,0.3-2.8,0.5-4.5,0.5c-2.1,0-3.9-0.3-5.5-0.9c-1.5-0.6-2.8-1.5-3.8-2.6c-1-1.1-1.7-2.4-2.2-3.9
		C228.4,28.9,228.1,27.2,228.1,25.5L228.1,25.5z M244.7,23.1c0-1.9-0.5-3.5-1.5-4.7c-1-1.2-2.4-1.8-4.2-1.8c-1,0-1.9,0.2-2.6,0.6
		c-0.8,0.4-1.4,0.9-1.9,1.5c-0.5,0.6-0.9,1.3-1.2,2.1c-0.3,0.8-0.5,1.6-0.6,2.4H244.7z"/>
</g>
</svg>
