<?xml version="1.0" encoding="utf-8"?>
<!-- Generator: Adobe Illustrator 18.1.0, SVG Export Plug-In . SVG Version: 6.00 Build 0)  -->
<!DOCTYPE svg PUBLIC "-//W3C//DTD SVG 1.1//EN" "http://www.w3.org/Graphics/SVG/1.1/DTD/svg11.dtd">
<svg version="1.1" id="Layer_1" xmlns="http://www.w3.org/2000/svg" xmlns:xlink="http://www.w3.org/1999/xlink" x="0px" y="0px"
	 viewBox="0 0 250 47" enable-background="new 0 0 250 47" xml:space="preserve">
<g>
	<g>
		<path fill="#F0FD37" d="M59.6,45.9h-9.3V1.1h9.3V45.9z"/>
		<path fill="#F0FD37" d="M79.9,4.7c1-2.7,3.5-4.7,6.6-4.7c3,0,5.6,1.9,6.6,4.6l14.6,41.3H97.5l-3-9.2H78l-3,9.2h-9.8L79.9,4.7z
			 M80.5,29H92l-5.7-17.6L80.5,29z"/>
		<path fill="#F0FD37" d="M34.2,1H44L29.3,42.3c-1,2.7-3.5,4.7-6.6,4.7c-3,0-5.6-1.9-6.6-4.6L1.5,1h10.2l11.1,34.7L34.2,1z"/>
		<path fill="#F0FD37" d="M147.2,25.8c-1.2-1.8-2.9-3.1-5.2-4c1.5-0.8,2.6-1.6,3.4-2.6c1.4-1.7,2.1-3.9,2.1-6.6
			c0-2.7-0.7-4.9-2.1-6.8c-2.3-3.1-6.2-4.7-11.6-4.8l-16.6,0c-2.8,0-5,2.3-5,5l0,34.7c0,2.8,2.3,5,5,5l15.2,0.1
			c2.3,0,4.4-0.2,6.3-0.6c0,0,3.6-1.2,5.1-2.3c1.3-1,2.3-2.1,3.2-3.5c1.3-2.1,2-4.5,2-7.1C149,29.8,148.4,27.6,147.2,25.8z
			 M121.1,8.8h9.8c2.1,0,3.9,0.1,5.3,0.7c1.6,0.7,2.4,2,2.4,4.1c0,1.9-0.6,3.2-1.8,3.9c-1.2,0.7-2.8,1.1-4.7,1.1h-10.9V8.8z
			 M136.5,37.3c-1.1,0.5-2.6,0.8-4.5,0.8h-10.9v-12h11c1.9,0,3.4,0.3,4.5,0.8c1.9,0.9,2.9,2.5,2.9,4.8
			C139.5,34.5,138.5,36.4,136.5,37.3z"/>
		<path fill="#F0FD37" d="M155.7,1.1h9.4v36.8h22.4v8l-26.7,0c-2.8,0-5-2.3-5-5L155.7,1.1z"/>
		<path fill="#F0FD37" d="M194,6.1c0-2.8,2.3-5,5-5l28.9,0V9h-24.8v9.5H225v7.8h-21.8v11.5H228v8.1l-28.9,0c-2.8,0-5-2.3-5-5
			L194,6.1z"/>
	</g>
	<g>
		<path fill="#F0FD37" d="M232.7,2.5V1.1h6.3v1.4h-2.3v6.2H235V2.5H232.7z"/>
		<path fill="#F0FD37" d="M242.2,1.1l1.8,5.3h0l1.7-5.3h2.4v7.7h-1.6V3.3h0l-1.9,5.4h-1.3l-1.9-5.4h0v5.4h-1.6V1.1H242.2z"/>
	</g>
</g>
</svg>
