<?xml version="1.0" encoding="utf-8"?>
<!-- Generator: Adobe Illustrator 18.1.1, SVG Export Plug-In . SVG Version: 6.00 Build 0)  -->
<!DOCTYPE svg PUBLIC "-//W3C//DTD SVG 1.1//EN" "http://www.w3.org/Graphics/SVG/1.1/DTD/svg11.dtd">
<svg version="1.1" id="Layer_1" xmlns="http://www.w3.org/2000/svg" xmlns:xlink="http://www.w3.org/1999/xlink" x="0px" y="0px"
	 viewBox="0 209 792 187" enable-background="new 0 209 792 187" xml:space="preserve">
<g id="g2999" transform="translate(0,-2e-5)">
	<path id="path8" fill="#FFFFFF" d="M249,391.6c-12.2,0-21.5-3.5-27.9-10.1s-9.6-16.2-9.6-28.4c0-6.1,0.8-11.7,2.9-16.5
		c1.9-4.8,4.5-9,8-12.2c3.5-3.5,7.2-5.8,12.2-7.4c4.5-1.9,9.8-2.4,15.4-2.4c3.2,0,5.8,0.3,8.8,0.8c2.4,0.5,4.8,0.8,6.9,1.6
		c2.1,0.8,3.7,1.1,4.8,1.9c1.3,0.8,2.4,1.1,2.7,1.6l-4.8,13.6c-2.4-1.1-5-2.4-8-3.2c-2.9-0.8-6.6-1.3-10.6-1.3c-2.4,0-5,0.5-7.4,1.3
		s-4.5,2.4-6.6,4c-1.9,1.9-3.5,4.3-4.5,7.2c-1.1,2.9-1.9,6.6-1.9,10.9c0,3.5,0.5,6.6,1.1,9.6c0.8,2.9,2.1,5.6,3.7,7.7
		c1.6,2.4,4,4,6.6,5c2.7,1.1,5.8,1.9,9.8,1.9c2.4,0,4.5-0.3,6.6-0.5c2.1-0.3,3.7-0.8,5.3-0.8c1.6-0.5,2.7-0.8,4-1.3
		c1.1-0.5,2.4-0.8,3.2-1.3l4.5,13.6c-2.4,1.3-5.6,2.7-10.1,4C259.7,391,254.9,391.6,249,391.6L249,391.6z"/>
	<path id="path10" fill="#FFFFFF" d="M296.1,353c0,3.7,0.5,6.9,1.3,9.8s2.4,5.6,4,7.4c1.6,2.1,3.7,3.7,6.1,4.8
		c2.4,1.1,5.3,1.9,8.5,1.9s5.8-0.8,8.5-1.9s4.5-2.7,6.1-4.8c1.6-2.1,2.9-4.5,4-7.4c0.8-2.9,1.3-6.1,1.3-9.8c0-3.7-0.5-6.9-1.3-9.8
		s-2.4-5.6-4-7.4c-1.6-2.4-3.7-4-6.1-5.3s-5.3-1.9-8.5-1.9s-5.8,0.8-8.5,1.9s-4.5,2.7-6.1,5c-1.6,2.1-2.9,4.5-4,7.4
		C296.6,346.1,296.1,349.3,296.1,353z M353.2,353c0,6.4-0.8,12-2.9,17c-1.9,4.8-4.5,9-7.7,12.2s-7.2,5.6-12,7.2s-9.3,2.4-14.6,2.4
		c-5,0-9.8-0.8-14.4-2.4c-4.5-1.6-8.5-4-12-7.2s-5.8-7.2-8-12.2c-1.9-4.8-2.9-10.6-2.9-17s0.8-12,2.9-17c2.1-4.8,4.8-9,8.2-12.2
		c3.5-3.2,7.2-5.6,12-7.2s9-2.4,14.1-2.4c5,0,9.8,0.8,14.4,2.4c4.5,1.6,8.5,4,12,7.2s5.8,7.2,8,12.2
		C352.4,340.8,353.2,346.7,353.2,353z"/>
	<path id="path12" fill="#FFFFFF" d="M387,315.8c1.3,2.4,2.7,5.3,4.5,8.8c1.6,3.5,3.5,7.2,5.3,11.2s3.7,8.2,5.6,12.2s3.5,8.2,5,12
		c1.6-3.7,3.2-7.7,5-12c1.9-4,3.7-8.5,5.6-12.2c1.9-4,3.7-7.7,5.3-11.2c1.6-3.5,3.2-6.4,4.5-8.8h15.4c0.8,5,1.3,10.6,2.1,16.7
		c0.8,6.1,1.1,12.5,1.6,19.1s0.8,13.3,1.3,19.9s0.8,13,0.8,18.6h-16.5c-0.3-7.2-0.5-15.1-0.8-23.7c-0.5-8.5-0.8-17-1.6-25.8
		c-1.3,2.9-2.7,6.4-4.3,10.1c-1.6,3.7-3.2,7.2-4.8,10.9c-1.6,3.7-2.9,7.2-4.5,10.6c-1.3,3.5-2.7,6.1-3.7,8.5h-11.7
		c-0.8-2.4-2.4-5.3-3.7-8.5c-1.3-3.5-2.9-6.9-4.5-10.6s-3.2-7.2-4.8-10.9c-1.6-3.7-2.9-7.2-4.3-10.1c-0.8,8.8-1.3,17.3-1.6,25.8
		c-0.5,8.5-0.8,16.5-0.8,23.7h-16.5c0.3-5.8,0.8-12.2,0.8-18.6c0.5-6.6,0.8-13.3,1.3-19.9s0.8-13,1.6-19.1s1.3-11.7,2.1-16.7H387
		L387,315.8z"/>
	<path id="path14" fill="#FFFFFF" d="M484,315.8c1.3,2.4,2.7,5.3,4.5,8.8c1.6,3.5,3.5,7.2,5.3,11.2s3.7,8.2,5.6,12.2s3.5,8.2,5,12
		c1.6-3.7,3.2-7.7,5-12c1.9-4.3,3.7-8.5,5.6-12.2c1.9-4,3.7-7.7,5.3-11.2s3.2-6.4,4.5-8.8h15.4c0.8,5,1.3,10.6,2.1,16.7
		s1.1,12.5,1.6,19.1s0.8,13.3,1.3,19.9s0.8,13,0.8,18.6h-16.5c-0.3-7.2-0.5-15.1-0.8-23.7c-0.5-8.5-0.8-17-1.6-25.8
		c-1.3,2.9-2.7,6.4-4.3,10.1s-3.2,7.2-4.8,10.9c-1.6,3.7-2.9,7.2-4.5,10.6c-1.3,3.5-2.7,6.1-3.7,8.5h-11.7c-0.8-2.4-2.4-5.3-3.7-8.5
		c-1.3-3.5-2.9-6.9-4.5-10.6s-3.2-7.2-4.8-10.9c-1.6-3.7-2.9-7.2-4.3-10.1c-0.8,8.8-1.3,17.3-1.6,25.8c-0.5,8.5-0.8,16.5-0.8,23.7
		h-16.5c0.3-5.8,0.8-12.2,0.8-18.6c0.5-6.6,0.8-13.3,1.3-19.9s0.8-13,1.6-19.1s1.3-11.7,2.1-16.7H484L484,315.8z"/>
	<path id="path16" fill="#FFFFFF" d="M574.9,353c0,3.7,0.5,6.9,1.3,9.8s2.4,5.6,4,7.4c1.6,2.1,3.7,3.7,6.1,4.8s5.3,1.9,8.5,1.9
		s5.8-0.8,8.5-1.9c2.4-1.1,4.5-2.7,6.1-4.8c1.6-2.1,2.9-4.5,4-7.4c0.8-2.9,1.3-6.1,1.3-9.8c0-3.7-0.5-6.9-1.3-9.8s-2.4-5.6-4-7.4
		c-1.6-2.1-4-3.7-6.1-4.8c-2.4-1.1-5.3-1.9-8.5-1.9s-5.8,0.8-8.5,1.9c-2.4,1.1-4.5,2.7-6.1,5c-1.6,2.1-2.9,4.5-4,7.4
		C575.1,346.1,574.9,349.3,574.9,353z M632,353c0,6.4-0.8,12-2.9,17c-2.1,5-4.5,9-7.7,12.2s-7.2,5.6-12,7.2s-9.3,2.4-14.6,2.4
		c-5,0-9.8-0.8-14.4-2.4c-4.5-1.6-8.5-4-12-7.2s-5.8-7.2-8-12.2c-2.1-4.8-2.9-10.6-2.9-17s0.8-12,2.9-17c2.1-4.8,4.8-9,8.2-12.2
		c3.5-3.2,7.2-5.6,12-7.2s9-2.4,14.1-2.4s9.8,0.8,14.4,2.4c4.5,1.6,8.5,4,12,7.2s5.8,7.2,8,12.2C630.9,340.8,632,346.7,632,353
		L632,353z"/>
	<path id="path18" fill="#FFFFFF" d="M696.1,390.2c-4.8-8.5-10.1-17-15.4-25.2c-5.6-8.2-11.7-16.2-17.8-23.7V390h-16.7v-74.4H660
		c2.4,2.4,5,5.3,7.7,8.8c2.9,3.5,5.6,7.2,8.8,10.9c2.9,4,5.8,8,9,12.2c2.9,4,5.6,8.2,8.2,12.2v-43.9h16.7v74.4H696.1z"/>
	<path id="path20" fill="#FFFFFF" d="M747.6,377.5c2.4,0,4.3-0.3,5.8-0.8c1.6-0.5,2.7-0.8,3.7-1.6c0.8-0.8,1.6-1.6,2.1-2.4
		s0.5-2.1,0.5-3.2c0-2.4-1.1-4.5-3.5-6.1s-6.1-3.5-12-5.3c-2.4-0.8-4.8-1.9-7.2-2.9s-4.5-2.4-6.6-4c-1.9-1.6-3.5-3.7-4.8-6.1
		c-1.1-2.4-1.9-5.3-1.9-8.8s0.8-6.6,1.9-9.3c1.3-2.7,3.2-5,5.6-7.2c2.4-1.9,5.3-3.5,8.8-4.5c3.5-1.1,7.2-1.6,11.4-1.6
		c5,0,9.3,0.5,13,1.6s6.6,2.4,9,3.7l-4.8,13.3c-2.1-1.1-4.3-2.1-6.9-2.7c-2.4-0.8-5.6-1.1-9-1.1c-4,0-6.9,0.5-8.8,1.6
		s-2.7,2.7-2.7,5c0,1.3,0.3,2.4,0.8,3.5c0.8,0.8,1.6,1.9,2.7,2.4c1.1,0.5,2.4,1.3,4,2.1c1.6,0.8,3.2,1.1,5,1.9
		c4,1.3,7.2,2.7,10.1,4.3c2.9,1.3,5.3,2.9,7.2,4.8s3.5,4,4.3,6.6c0.8,2.4,1.3,5.6,1.3,9c0,6.9-2.4,12.2-7.2,16.2s-12.2,5.6-22.1,5.6
		c-3.2,0-6.4-0.3-9-0.8c-2.7-0.5-5-0.8-7.2-1.3c-2.1-0.8-4-1.1-5.3-1.9s-2.7-1.1-3.7-1.9l4.8-13.3c2.4,1.1,5,2.4,8.2,3.2
		C739.1,377,743.1,377.5,747.6,377.5L747.6,377.5z"/>
	<path id="path22" fill="#FFFFFF" d="M246.4,296.4c-5.3,0-9.8-0.8-14.1-2.4s-8-4-10.9-7.2s-5.6-7.2-7.2-12
		c-1.6-4.5-2.4-10.1-2.4-15.9c0-5.8,0.8-11.4,2.7-15.9s4.3-8.8,7.4-12c3.2-3.5,6.9-6.1,11.2-7.7c4.3-1.3,9-2.4,13.8-2.4
		c2.9,0.3,5.6,0.5,8.2,0.8c2.4,0.5,4.5,0.8,6.4,1.3s3.2,1.1,4.3,1.6c1.1,0.5,1.9,0.8,2.4,1.1l-2.9,8.5c-0.8-0.5-1.6-0.8-2.7-1.3
		s-2.4-0.8-4-1.3s-3.5-0.8-5.3-1.1c-1.9-0.3-3.7-0.5-5.6-0.5c-4,0-7.2,0.8-10.6,2.1c-3.2,1.3-5.6,3.2-8,5.6s-4,5.6-5,9
		c-1.1,3.7-1.9,7.4-1.9,12.2c0,4.3,0.5,8.2,1.6,11.7c0.8,3.5,2.4,6.6,4.5,9s4.5,4.5,7.7,5.8c2.9,1.3,6.6,2.1,10.6,2.1
		c4.8,0,8.8-0.5,12-1.3c3.2-0.8,5.6-1.9,7.2-2.4l2.7,8.2c-0.5,0.5-1.3,0.8-2.7,1.3c-1.3,0.5-2.9,0.8-4.8,1.6c-1.9,0.5-4,0.8-6.6,1.1
		C252,296.2,249.3,296.4,246.4,296.4z"/>
	<path id="path24" fill="#FFFFFF" d="M279.6,294.6v-78.7l10.1-1.6v27.4c1.9-0.8,4-1.1,5.8-1.6c1.9-0.5,4-0.8,6.1-0.8
		c4.3,0,8,0.8,10.9,1.9c2.9,1.1,5.3,2.9,6.9,5c1.9,2.4,2.9,4.8,3.7,7.7c0.8,2.9,1.1,6.4,1.1,10.1v30.3h-9.8v-27.6
		c0-3.5-0.3-6.1-0.8-8.5s-1.1-4.3-2.4-5.6c-1.1-1.3-2.4-2.4-4.3-3.2s-4-0.8-6.6-0.8c-1.1,0-2.1,0-3.2,0.3s-2.4,0.3-3.2,0.5
		c-0.8,0.3-2.1,0.5-2.7,0.8c-0.8,0.3-1.3,0.5-1.9,0.5v44.6L279.6,294.6z"/>
	<path id="path26" fill="#FFFFFF" d="M337.3,268c0-4.8,0.8-9,2.1-12.5c1.3-3.7,3.2-6.6,5.6-9s5-4,8-5.3c2.9-1.3,6.1-1.9,9.3-1.9
		c7.4,0,13,2.4,17,6.9s5.8,11.4,5.8,20.7c0,0.5,0,0.8,0,1.6c0,0.8,0,1.3,0,1.9h-38c0.5,5.6,2.1,9.8,5,12.8s7.4,4.3,13.6,4.3
		c3.5,0,6.4-0.3,8.8-0.8c2.4-0.8,4-1.1,5.3-1.9l1.3,8c-1.1,0.8-3.2,1.3-6.4,2.1c-2.9,0.8-6.4,1.1-10.4,1.1c-4.8,0-9-0.8-12.5-2.1
		c-3.5-1.3-6.4-3.5-8.8-5.8c-2.4-2.4-4-5.6-5-9C338.1,275.7,337.3,272,337.3,268L337.3,268z M375.3,262.4c0-4.3-1.1-8-3.5-10.6
		c-2.4-2.7-5.6-4-9.6-4c-2.4,0-4.3,0.5-5.8,1.3c-1.9,0.8-3.2,2.1-4.3,3.5c-1.1,1.3-2.1,2.9-2.7,4.8c-0.8,1.9-1.1,3.7-1.3,5.6
		L375.3,262.4L375.3,262.4z"/>
	<path id="path28" fill="#FFFFFF" d="M412.5,287.9c4,0,7.2-0.5,9-1.6c2.1-1.1,2.9-2.7,2.9-5c0-2.4-0.8-4-2.9-5.6
		c-1.9-1.3-5-2.9-9.3-4.5c-2.1-0.8-4-1.6-6.1-2.4s-3.7-1.9-5-2.9c-1.3-1.1-2.4-2.4-3.5-4.3c-0.8-1.6-1.3-3.7-1.3-6.1
		c0-4.8,1.9-8.8,5.6-11.4s8.5-4,14.9-4c1.6,0,3.2,0,4.5,0.3c1.6,0.3,2.9,0.5,4.3,0.8s2.4,0.5,3.7,0.8c0.8,0.3,1.9,0.5,2.4,0.8
		l-1.6,8.5c-1.1-0.5-2.7-1.1-5-1.9c-2.4-0.8-5-0.8-8.2-0.8c-2.7,0-5.3,0.5-7.2,1.6c-1.9,1.1-2.9,2.7-2.9,5c0,1.1,0.3,2.4,0.8,3.2
		s1.1,1.9,2.1,2.4c0.8,0.8,2.1,1.3,3.7,2.1c1.3,0.8,3.2,1.3,5,2.1c2.4,0.8,5,1.9,7.2,2.9c2.1,0.8,4,2.1,5.3,3.2s2.4,2.7,3.5,4.5
		c0.8,1.9,1.1,4,1.1,6.4c0,5-1.9,8.8-5.6,11.4c-4,2.4-9,4-16.2,4c-4.8,0-8.8-0.5-11.4-1.1c-2.7-0.8-4.5-1.3-5.6-1.9l1.9-8.2
		c1.1,0.5,2.9,1.1,5.6,1.9C405,287.4,408.5,287.9,412.5,287.9L412.5,287.9z"/>
	<path id="path30" fill="#FFFFFF" d="M465.6,287.9c2.4,0,4.3,0,6.1-0.3c1.9,0,3.2-0.3,4.5-0.8v-15.9c-0.8-0.5-1.9-0.8-3.5-0.8
		c-1.6-0.3-3.5-0.5-5.6-0.5c-1.3,0-2.9,0-4.8,0.3c-1.6,0.3-3.2,0.8-4.5,1.3c-1.3,0.8-2.4,1.6-3.5,2.7s-1.3,2.7-1.3,4.5
		c0,3.5,1.1,5.8,3.5,7.2C458.7,287.1,461.6,287.9,465.6,287.9L465.6,287.9z M464.8,239.6c4,0,7.2,0.5,10.1,1.6
		c2.7,0.8,5,2.4,6.6,4.3c1.6,1.9,2.7,4,3.7,6.6c0.8,2.4,1.1,5.3,1.1,8.5v33.8c-0.8,0.3-2.1,0.3-3.7,0.8c-1.6,0.3-3.2,0.5-5.3,0.8
		c-2.1,0.3-4,0.5-6.1,0.8c-2.4,0.3-4.3,0.3-6.6,0.3c-3.2,0-5.8-0.3-8.8-0.8c-2.4-0.8-4.8-1.6-6.9-2.9s-3.5-3.2-4.5-5.3
		c-1.1-2.4-1.6-4.8-1.6-8c0-2.9,0.8-5.6,1.9-7.7s2.9-4,5-5.3s4.5-2.4,7.4-2.9c2.7-0.8,5.6-0.8,9-0.8c0.8,0,2.1,0,2.9,0.3
		c1.1,0,2.1,0.3,2.9,0.5s1.9,0.3,2.4,0.5c0.5,0.3,1.1,0.3,1.6,0.3v-2.7c0-1.6-0.3-3.2-0.5-4.8c-0.5-1.6-0.8-2.9-1.9-4
		c-0.8-1.1-2.4-2.4-3.7-2.9c-1.6-0.8-3.7-1.1-6.1-1.1c-3.2,0-6.1,0.3-8.5,0.8s-4.3,0.8-5.6,1.3l-1.1-8c1.3-0.5,3.5-1.1,6.4-1.6
		C458.2,239.6,461.4,239.6,464.8,239.6L464.8,239.6z"/>
	<path id="path32" fill="#FFFFFF" d="M540.8,268c0-6.4-1.6-11.2-4.8-14.6c-3.2-3.5-7.4-5-12.8-5c-2.9,0-5.3,0-6.9,0.3
		c-1.6,0.3-2.9,0.5-4,0.8v34c1.1,0.8,2.9,1.9,5.3,2.7c2.4,0.8,4.8,1.3,7.4,1.3s5.3-0.5,7.2-1.6c2.1-0.8,3.7-2.4,5-4
		c1.3-1.9,2.4-4,2.7-6.1C540.3,273.3,540.8,270.7,540.8,268L540.8,268z M550.9,268c0,4-0.5,7.7-1.6,11.4c-1.1,3.5-2.7,6.4-4.8,9
		c-2.1,2.4-4.8,4.3-7.7,5.6c-2.9,1.3-6.6,2.1-10.6,2.1c-3.2,0-5.8-0.5-8.5-1.1c-2.4-0.8-4.3-1.6-5.6-2.4v21.8h-9.8v-72
		c2.4-0.5,5.3-1.1,8.8-1.9c3.5-0.8,7.4-0.8,12.2-0.8c4.3,0,8,0.8,11.4,2.1c3.5,1.3,6.4,3.2,8.8,5.6c2.4,2.4,4.3,5.6,5.6,9
		C550.4,259.5,550.9,263.5,550.9,268L550.9,268z"/>
	<path id="path34" fill="#FFFFFF" d="M561.8,268c0-4.8,0.8-9,2.1-12.5c1.3-3.7,3.2-6.6,5.6-9c2.4-2.4,5-4,8-5.3
		c2.9-1.1,6.1-1.9,9.3-1.9c7.4,0,13,2.4,17,6.9s5.8,11.4,5.8,20.7c0,0.5,0,0.8,0,1.6c0,0.8,0,1.3,0,1.9h-37.7
		c0.5,5.6,2.1,9.8,5,12.8c2.9,2.9,7.4,4.3,13.6,4.3c3.5,0,6.4-0.3,8.8-0.8c2.4-0.8,4-1.1,5.3-1.9l1.3,8c-1.1,0.8-3.2,1.3-6.4,2.1
		c-2.9,0.8-6.4,1.1-10.4,1.1c-4.8,0-9-0.8-12.5-2.1c-3.7-1.3-6.4-3.5-8.8-5.8c-2.4-2.4-4-5.6-5-9C562.1,275.7,561.8,272,561.8,268
		L561.8,268z M599.6,262.4c0-4.3-1.1-8-3.5-10.6s-5.6-4-9.6-4c-2.4,0-4.3,0.5-5.8,1.3c-1.9,0.8-3.2,2.1-4.3,3.5
		c-1.1,1.3-2.1,2.9-2.7,4.8c-0.5,1.9-1.1,3.7-1.3,5.6L599.6,262.4L599.6,262.4z"/>
	<path id="path36" fill="#FFFFFF" d="M642.9,287.9c2.4,0,4.3,0,6.1-0.3c1.9,0,3.2-0.3,4.5-0.8v-15.9c-0.8-0.5-1.9-0.8-3.5-0.8
		c-1.6-0.3-3.5-0.5-5.6-0.5c-1.6,0-2.9,0-4.8,0.3c-1.6,0.3-3.2,0.8-4.5,1.3s-2.4,1.6-3.5,2.7c-0.8,1.1-1.3,2.7-1.3,4.5
		c0,3.5,1.1,5.8,3.5,7.2C635.7,287.1,638.9,287.9,642.9,287.9L642.9,287.9z M641.8,239.6c4,0,7.2,0.5,10.1,1.6
		c2.7,0.8,5,2.4,6.6,4.3s2.7,4,3.7,6.6c0.8,2.4,1.1,5.3,1.1,8.5v33.8c-0.8,0.3-2.1,0.3-3.7,0.8c-1.6,0.3-3.2,0.5-5.3,0.8
		c-1.9,0.3-4,0.5-6.1,0.8c-2.4,0.3-4.3,0.3-6.6,0.3c-3.2,0-5.8-0.3-8.8-0.8c-2.4-0.8-4.8-1.6-6.9-2.9c-1.9-1.3-3.5-3.2-4.5-5.3
		c-1.1-2.4-1.6-4.8-1.6-8c0-2.9,0.8-5.6,1.9-7.7c1.1-2.1,2.9-4,5-5.3s4.5-2.4,7.4-2.9c2.7-0.8,5.6-0.8,9-0.8c0.8,0,2.1,0,2.9,0.3
		c1.1,0,2.1,0.3,2.9,0.5c0.8,0.3,1.9,0.3,2.4,0.5c0.5,0.3,1.1,0.3,1.6,0.3v-2.7c0-1.6-0.3-3.2-0.5-4.8c-0.5-1.6-0.8-2.9-1.9-4
		c-0.8-1.1-2.4-2.4-3.7-2.9c-1.6-0.8-3.7-1.1-6.1-1.1c-3.2,0-6.1,0.3-8.5,0.8s-4.3,0.8-5.6,1.3l-1.3-8.5c1.3-0.5,3.5-1.1,6.4-1.6
		C635.2,239.6,638.6,239.6,641.8,239.6L641.8,239.6z"/>
	<path id="path38" fill="#FFFFFF" d="M699.5,265.1c2.1,1.6,4.3,3.7,6.6,5.8c2.4,2.4,4.8,4.8,7.2,7.4c2.4,2.7,4.5,5.6,6.6,8.2
		c2.1,2.7,4,5.6,5.3,7.7h-11.7c-1.3-2.4-3.2-4.8-5.3-7.4c-2.1-2.4-4-5-6.1-7.2c-2.1-2.4-4.3-4.3-6.4-6.4c-2.4-1.9-4.3-3.7-6.1-4.8
		v26h-9.8v-78.7l9.8-1.6v49.4c1.6-1.6,3.7-3.5,5.6-5.6c2.1-2.1,4-4,5.8-6.1c2.1-2.1,4-4,5.6-5.8c1.9-1.9,3.2-3.7,4.5-5h11.7
		c-1.6,1.9-3.5,3.7-5.3,5.6c-1.9,2.1-4,4-5.8,6.4c-2.1,2.1-4,4-6.1,6.4C703.2,261.1,701.4,263.2,699.5,265.1L699.5,265.1z"/>
	<path id="path40" fill="#FFFFFF" d="M729,268c0-4.8,0.8-9,2.1-12.5c1.3-3.7,3.2-6.6,5.6-9c2.4-2.4,5-4,8-5.3
		c2.9-1.3,6.1-1.9,9.3-1.9c7.4,0,13,2.4,17,6.9s5.8,11.4,5.8,20.7c0,0.5,0,0.8,0,1.6c0,0.8,0,1.3,0,1.9h-37.7
		c0.5,5.6,2.1,9.8,5,12.8s7.4,4.3,13.6,4.3c3.5,0,6.4-0.3,8.8-0.8c2.4-0.8,4-1.1,5.3-1.9l1.3,8c-1.1,0.8-3.2,1.3-6.4,2.1
		c-2.9,0.8-6.4,1.1-10.4,1.1c-4.8,0-9-0.8-12.5-2.1c-3.5-1.3-6.4-3.5-8.8-5.8c-2.4-2.4-4-5.6-5-9C729.5,275.7,729,272,729,268
		L729,268z M766.8,262.4c0-4.3-1.1-8-3.5-10.6s-5.6-4-9.6-4c-2.4,0-4.3,0.5-5.8,1.3c-1.9,0.8-3.2,2.1-4.3,3.5s-2.1,2.9-2.7,4.8
		c-0.5,1.9-1.1,3.7-1.3,5.6L766.8,262.4L766.8,262.4z"/>
</g>
<path id="rect3801" fill="#1D8AC7" d="M26.6,219.6h127.6c11.7,0,21.3,9.6,21.3,21.3v127.6c0,11.7-9.6,21.3-21.3,21.3H26.6
	c-11.7,0-21.3-9.6-21.3-21.3V240.9C5.3,229.2,14.9,219.6,26.6,219.6z"/>
<path id="path3803-0" fill="#20D868" d="M90.4,368.5c-17.3,0-32.7,8.5-42.5,21.3h85C123.1,377,107.6,368.5,90.4,368.5z"/>
<path id="path3803-5" fill="#1D8AC7" d="M116.9,304.7c0,14.6-12,26.6-26.6,26.6s-26.6-12-26.6-26.6s12-26.6,26.6-26.6
	S116.9,290.1,116.9,304.7z"/>
<path id="path3841" fill="#1D8AC7" d="M154.1,262.1v85l-63.8-42.5L154.1,262.1z"/>
<path id="path8_1_" fill="#FFFFFF" d="M91.4,350c-14.4,0-25.3-4.1-32.8-11.9S47.3,319,47.3,304.6c0-7.2,0.9-13.8,3.4-19.4
	c2.2-5.6,5.3-10.6,9.4-14.4c4.1-4.1,8.4-6.9,14.4-8.8c5.3-2.2,11.6-2.8,18.1-2.8c3.8,0,6.9,0.3,10.3,0.9c2.8,0.6,5.6,0.9,8.1,1.9
	c2.5,0.9,4.4,1.3,5.6,2.2c1.6,0.9,2.8,1.3,3.1,1.9l-5.6,15.9c-2.8-1.3-5.9-2.8-9.4-3.8s-7.8-1.6-12.5-1.6c-2.8,0-5.9,0.6-8.8,1.6
	c-2.8,0.9-5.3,2.8-7.8,4.7c-2.2,2.2-4.1,5-5.3,8.4c-1.3,3.4-2.2,7.8-2.2,12.8c0,4.1,0.6,7.8,1.3,11.3c0.9,3.4,2.5,6.6,4.4,9.1
	c1.9,2.8,4.7,4.7,7.8,5.9c3.1,1.3,6.9,2.2,11.6,2.2c2.8,0,5.3-0.3,7.8-0.6c2.5-0.3,4.4-0.9,6.3-0.9c1.9-0.6,3.1-0.9,4.7-1.6
	c1.3-0.6,2.8-0.9,3.8-1.6l5.3,15.9c-2.8,1.6-6.6,3.1-11.9,4.7C103.9,349.4,98.2,350,91.4,350L91.4,350z"/>
</svg>
