<?xml version="1.0" encoding="utf-8"?>
<!-- Generator: Adobe Illustrator 18.1.0, SVG Export Plug-In . SVG Version: 6.00 Build 0)  -->
<!DOCTYPE svg PUBLIC "-//W3C//DTD SVG 1.1//EN" "http://www.w3.org/Graphics/SVG/1.1/DTD/svg11.dtd">
<svg version="1.1" id="Layer_1" xmlns="http://www.w3.org/2000/svg" xmlns:xlink="http://www.w3.org/1999/xlink" x="0px" y="0px"
	 viewBox="0 0 128 128" enable-background="new 0 0 128 128" xml:space="preserve">
<g>
	<path fill-rule="evenodd" clip-rule="evenodd" fill="#3AEBF9" d="M64,3C29.5,3,1.5,31,1.5,65.5c0,27.6,17.9,51,42.7,59.3
		c3.1,0.6,4.3-1.4,4.3-3c0-1.5-0.1-6.4-0.1-11.6c-17.4,3.8-21.1-7.4-21.1-7.4c-2.8-7.2-6.9-9.1-6.9-9.1c-5.7-3.9,0.4-3.8,0.4-3.8
		c6.3,0.4,9.6,6.4,9.6,6.4c5.6,9.6,14.6,6.8,18.2,5.2c0.6-4,2.2-6.8,4-8.4c-13.9-1.6-28.5-6.9-28.5-30.9c0-6.8,2.4-12.4,6.4-16.8
		c-0.6-1.6-2.8-7.9,0.6-16.5c0,0,5.2-1.7,17.2,6.4c5-1.4,10.3-2.1,15.6-2.1c5.3,0,10.7,0.7,15.7,2.1c11.9-8.1,17.2-6.4,17.2-6.4
		c3.4,8.6,1.3,15,0.6,16.5c4,4.4,6.4,10,6.4,16.8c0,24-14.6,29.3-28.5,30.8c2.2,1.9,4.2,5.7,4.2,11.6c0,8.4-0.1,15.1-0.1,17.2
		c0,1.7,1.1,3.6,4.3,3c24.8-8.3,42.7-31.7,42.7-59.3C126.5,31,98.5,3,64,3z"/>
	<path fill="#3AEBF9" d="M25.1,92.7c-0.1,0.3-0.6,0.4-1.1,0.2c-0.5-0.2-0.7-0.6-0.6-0.9c0.1-0.3,0.6-0.4,1.1-0.2
		C25,92,25.3,92.4,25.1,92.7L25.1,92.7z M24.4,92.2"/>
	<path fill="#3AEBF9" d="M27.7,95.6c-0.3,0.3-0.9,0.1-1.3-0.3c-0.4-0.4-0.5-1-0.2-1.3c0.3-0.3,0.9-0.1,1.3,0.3
		C27.9,94.7,28,95.3,27.7,95.6L27.7,95.6z M27.1,94.9"/>
	<path fill="#3AEBF9" d="M30.1,99.2c-0.4,0.3-1,0-1.4-0.5c-0.4-0.6-0.4-1.2,0-1.5c0.4-0.3,1,0,1.4,0.5
		C30.5,98.2,30.5,98.9,30.1,99.2L30.1,99.2z M30.1,99.2"/>
	<path fill="#3AEBF9" d="M33.5,102.6c-0.3,0.4-1.1,0.3-1.6-0.2c-0.5-0.5-0.7-1.2-0.4-1.6c0.3-0.4,1.1-0.3,1.6,0.2
		C33.7,101.6,33.9,102.3,33.5,102.6L33.5,102.6z M33.5,102.6"/>
	<path fill="#3AEBF9" d="M38.2,104.7c-0.2,0.5-0.9,0.7-1.6,0.5c-0.7-0.2-1.2-0.8-1-1.3c0.1-0.5,0.9-0.7,1.6-0.5
		C37.9,103.6,38.3,104.2,38.2,104.7L38.2,104.7z M38.2,104.7"/>
	<path fill="#3AEBF9" d="M43.3,105c0,0.5-0.6,0.9-1.3,1c-0.7,0-1.4-0.4-1.4-0.9c0-0.5,0.6-0.9,1.3-1C42.7,104.1,43.3,104.5,43.3,105
		L43.3,105z M43.3,105"/>
	<path fill="#3AEBF9" d="M48,104.2c0.1,0.5-0.4,1-1.2,1.2c-0.7,0.1-1.4-0.2-1.5-0.7c-0.1-0.5,0.4-1,1.2-1.2
		C47.3,103.4,48,103.7,48,104.2L48,104.2z M48,104.2"/>
</g>
</svg>
